<mxfile host="Electron" modified="2023-12-12T23:55:17.449Z" agent="Mozilla/5.0 (X11; Linux x86_64) AppleWebKit/537.36 (KHTML, like Gecko) draw.io/22.1.2 Chrome/114.0.5735.289 Electron/25.9.4 Safari/537.36" etag="RCLjJ8sRXseooj-6os0h" version="22.1.2" type="device">
  <diagram name="Page-1" id="ddcRqZwyvk98Z59QxuTG">
    <mxGraphModel dx="2899" dy="2271" grid="1" gridSize="10" guides="1" tooltips="1" connect="1" arrows="1" fold="1" page="1" pageScale="1" pageWidth="850" pageHeight="1100" math="0" shadow="0">
      <root>
        <mxCell id="0" />
        <mxCell id="1" parent="0" />
        <mxCell id="QVTyKydUTtdUCLJJfBFI-4" value="" style="group" vertex="1" connectable="0" parent="1">
          <mxGeometry x="-360" y="-860" width="380" height="560" as="geometry" />
        </mxCell>
        <mxCell id="QVTyKydUTtdUCLJJfBFI-2" value="" style="rounded=0;whiteSpace=wrap;html=1;fillColor=#647687;fontColor=#ffffff;strokeColor=#314354;" vertex="1" parent="QVTyKydUTtdUCLJJfBFI-4">
          <mxGeometry width="380" height="560" as="geometry" />
        </mxCell>
        <mxCell id="QVTyKydUTtdUCLJJfBFI-3" value="&lt;div style=&quot;background-color: rgb(31, 31, 31); line-height: 19px;&quot;&gt;&lt;div style=&quot;line-height: 19px;&quot;&gt;&lt;div style=&quot;color: rgb(204, 204, 204); font-family: &amp;quot;Droid Sans Mono&amp;quot;, &amp;quot;monospace&amp;quot;, monospace; font-size: 14px;&quot;&gt;namespace &lt;span style=&quot;color: #4ec9b0;&quot;&gt;hello&lt;/span&gt;&lt;/div&gt;&lt;div style=&quot;color: rgb(204, 204, 204); font-family: &amp;quot;Droid Sans Mono&amp;quot;, &amp;quot;monospace&amp;quot;, monospace; font-size: 14px;&quot;&gt;{&lt;/div&gt;&lt;div style=&quot;color: rgb(204, 204, 204); font-family: &amp;quot;Droid Sans Mono&amp;quot;, &amp;quot;monospace&amp;quot;, monospace; font-size: 14px;&quot;&gt;    &lt;span style=&quot;color: #569cd6;&quot;&gt;namespace&lt;/span&gt; &lt;span style=&quot;color: #4ec9b0;&quot;&gt;world&lt;/span&gt;&lt;/div&gt;&lt;div style=&quot;color: rgb(204, 204, 204); font-family: &amp;quot;Droid Sans Mono&amp;quot;, &amp;quot;monospace&amp;quot;, monospace; font-size: 14px;&quot;&gt;    {&lt;/div&gt;&lt;div style=&quot;color: rgb(204, 204, 204); font-family: &amp;quot;Droid Sans Mono&amp;quot;, &amp;quot;monospace&amp;quot;, monospace; font-size: 14px;&quot;&gt;        &lt;span style=&quot;color: #569cd6;&quot;&gt;void&lt;/span&gt; &lt;span style=&quot;color: #dcdcaa;&quot;&gt;myfunc&lt;/span&gt;()&lt;/div&gt;&lt;div style=&quot;color: rgb(204, 204, 204); font-family: &amp;quot;Droid Sans Mono&amp;quot;, &amp;quot;monospace&amp;quot;, monospace; font-size: 14px;&quot;&gt;        {&lt;/div&gt;&lt;div style=&quot;color: rgb(204, 204, 204); font-family: &amp;quot;Droid Sans Mono&amp;quot;, &amp;quot;monospace&amp;quot;, monospace; font-size: 14px;&quot;&gt;            &lt;span style=&quot;color: #4ec9b0;&quot;&gt;std&lt;/span&gt;::cout &lt;span style=&quot;color: #d4d4d4;&quot;&gt;&amp;lt;&amp;lt;&lt;/span&gt; &lt;span style=&quot;color: #ce9178;&quot;&gt;&quot;hello world&quot;&lt;/span&gt; &lt;span style=&quot;color: #d4d4d4;&quot;&gt;&amp;lt;&amp;lt;&lt;/span&gt; &lt;span style=&quot;color: #4ec9b0;&quot;&gt;std&lt;/span&gt;::endl;&lt;/div&gt;&lt;div style=&quot;color: rgb(204, 204, 204); font-family: &amp;quot;Droid Sans Mono&amp;quot;, &amp;quot;monospace&amp;quot;, monospace; font-size: 14px;&quot;&gt;        }&lt;/div&gt;&lt;div style=&quot;&quot;&gt;&lt;font color=&quot;#cccccc&quot; face=&quot;Droid Sans Mono, monospace, monospace&quot;&gt;&lt;span style=&quot;font-size: 14px;&quot;&gt;&lt;br&gt;&lt;/span&gt;&lt;/font&gt;&lt;/div&gt;&lt;div style=&quot;color: rgb(204, 204, 204); font-family: &amp;quot;Droid Sans Mono&amp;quot;, &amp;quot;monospace&amp;quot;, monospace; font-size: 14px;&quot;&gt;        &lt;span style=&quot;color: #569cd6;&quot;&gt;namespace&lt;/span&gt; &lt;span style=&quot;color: #4ec9b0;&quot;&gt;world2&lt;/span&gt;&lt;/div&gt;&lt;div style=&quot;color: rgb(204, 204, 204); font-family: &amp;quot;Droid Sans Mono&amp;quot;, &amp;quot;monospace&amp;quot;, monospace; font-size: 14px;&quot;&gt;        {&lt;/div&gt;&lt;div style=&quot;color: rgb(204, 204, 204); font-family: &amp;quot;Droid Sans Mono&amp;quot;, &amp;quot;monospace&amp;quot;, monospace; font-size: 14px;&quot;&gt;            &lt;span style=&quot;color: #569cd6;&quot;&gt;void&lt;/span&gt; &lt;span style=&quot;color: #dcdcaa;&quot;&gt;myfunc2&lt;/span&gt;()&lt;/div&gt;&lt;div style=&quot;color: rgb(204, 204, 204); font-family: &amp;quot;Droid Sans Mono&amp;quot;, &amp;quot;monospace&amp;quot;, monospace; font-size: 14px;&quot;&gt;            {&lt;/div&gt;&lt;div style=&quot;color: rgb(204, 204, 204); font-family: &amp;quot;Droid Sans Mono&amp;quot;, &amp;quot;monospace&amp;quot;, monospace; font-size: 14px;&quot;&gt;                &lt;span style=&quot;color: #4ec9b0;&quot;&gt;std&lt;/span&gt;::cout &lt;span style=&quot;color: #d4d4d4;&quot;&gt;&amp;lt;&amp;lt;&lt;/span&gt; &lt;span style=&quot;color: #ce9178;&quot;&gt;&quot;hello world&quot;&lt;/span&gt; &lt;span style=&quot;color: #d4d4d4;&quot;&gt;&amp;lt;&amp;lt;&lt;/span&gt; &lt;span style=&quot;color: #4ec9b0;&quot;&gt;std&lt;/span&gt;::endl;&lt;/div&gt;&lt;div style=&quot;color: rgb(204, 204, 204); font-family: &amp;quot;Droid Sans Mono&amp;quot;, &amp;quot;monospace&amp;quot;, monospace; font-size: 14px;&quot;&gt;            }&lt;/div&gt;&lt;div style=&quot;color: rgb(204, 204, 204); font-family: &amp;quot;Droid Sans Mono&amp;quot;, &amp;quot;monospace&amp;quot;, monospace; font-size: 14px;&quot;&gt;        }&lt;/div&gt;&lt;div style=&quot;&quot;&gt;&lt;br&gt;&lt;/div&gt;&lt;div style=&quot;color: rgb(204, 204, 204); font-family: &amp;quot;Droid Sans Mono&amp;quot;, &amp;quot;monospace&amp;quot;, monospace; font-size: 14px;&quot;&gt;        &lt;span style=&quot;color: #569cd6;&quot;&gt;void&lt;/span&gt; &lt;span style=&quot;color: #dcdcaa;&quot;&gt;myfunc3&lt;/span&gt;()&lt;/div&gt;&lt;div style=&quot;color: rgb(204, 204, 204); font-family: &amp;quot;Droid Sans Mono&amp;quot;, &amp;quot;monospace&amp;quot;, monospace; font-size: 14px;&quot;&gt;        {&lt;/div&gt;&lt;div style=&quot;color: rgb(204, 204, 204); font-family: &amp;quot;Droid Sans Mono&amp;quot;, &amp;quot;monospace&amp;quot;, monospace; font-size: 14px;&quot;&gt;            &lt;span style=&quot;color: #4ec9b0;&quot;&gt;std&lt;/span&gt;::cout &lt;span style=&quot;color: #d4d4d4;&quot;&gt;&amp;lt;&amp;lt;&lt;/span&gt; &lt;span style=&quot;color: #ce9178;&quot;&gt;&quot;hello world&quot;&lt;/span&gt; &lt;span style=&quot;color: #d4d4d4;&quot;&gt;&amp;lt;&amp;lt;&lt;/span&gt; &lt;span style=&quot;color: #4ec9b0;&quot;&gt;std&lt;/span&gt;::endl;&lt;/div&gt;&lt;div style=&quot;color: rgb(204, 204, 204); font-family: &amp;quot;Droid Sans Mono&amp;quot;, &amp;quot;monospace&amp;quot;, monospace; font-size: 14px;&quot;&gt;        }&lt;/div&gt;&lt;div style=&quot;color: rgb(204, 204, 204); font-family: &amp;quot;Droid Sans Mono&amp;quot;, &amp;quot;monospace&amp;quot;, monospace; font-size: 14px;&quot;&gt;    }&lt;/div&gt;&lt;div style=&quot;&quot;&gt;&lt;br&gt;&lt;/div&gt;&lt;div style=&quot;color: rgb(204, 204, 204); font-family: &amp;quot;Droid Sans Mono&amp;quot;, &amp;quot;monospace&amp;quot;, monospace; font-size: 14px;&quot;&gt;    &lt;span style=&quot;color: #569cd6;&quot;&gt;void&lt;/span&gt; &lt;span style=&quot;color: #dcdcaa;&quot;&gt;myfunc4&lt;/span&gt;()&lt;/div&gt;&lt;div style=&quot;color: rgb(204, 204, 204); font-family: &amp;quot;Droid Sans Mono&amp;quot;, &amp;quot;monospace&amp;quot;, monospace; font-size: 14px;&quot;&gt;    {&lt;/div&gt;&lt;div style=&quot;color: rgb(204, 204, 204); font-family: &amp;quot;Droid Sans Mono&amp;quot;, &amp;quot;monospace&amp;quot;, monospace; font-size: 14px;&quot;&gt;        &lt;span style=&quot;color: #4ec9b0;&quot;&gt;std&lt;/span&gt;::cout &lt;span style=&quot;color: #d4d4d4;&quot;&gt;&amp;lt;&amp;lt;&lt;/span&gt; &lt;span style=&quot;color: #ce9178;&quot;&gt;&quot;hello world&quot;&lt;/span&gt; &lt;span style=&quot;color: #d4d4d4;&quot;&gt;&amp;lt;&amp;lt;&lt;/span&gt; &lt;span style=&quot;color: #4ec9b0;&quot;&gt;std&lt;/span&gt;::endl;&lt;/div&gt;&lt;div style=&quot;color: rgb(204, 204, 204); font-family: &amp;quot;Droid Sans Mono&amp;quot;, &amp;quot;monospace&amp;quot;, monospace; font-size: 14px;&quot;&gt;    }&lt;/div&gt;&lt;div style=&quot;color: rgb(204, 204, 204); font-family: &amp;quot;Droid Sans Mono&amp;quot;, &amp;quot;monospace&amp;quot;, monospace; font-size: 14px;&quot;&gt;}&lt;/div&gt;&lt;/div&gt;&lt;/div&gt;" style="text;strokeColor=none;align=left;fillColor=none;html=1;verticalAlign=middle;whiteSpace=wrap;rounded=0;" vertex="1" parent="QVTyKydUTtdUCLJJfBFI-4">
          <mxGeometry x="20" y="10" width="350" height="540" as="geometry" />
        </mxCell>
        <mxCell id="QVTyKydUTtdUCLJJfBFI-12" value="" style="group" vertex="1" connectable="0" parent="1">
          <mxGeometry x="610" y="-350" width="90" height="80" as="geometry" />
        </mxCell>
        <mxCell id="QVTyKydUTtdUCLJJfBFI-9" value="" style="rounded=0;whiteSpace=wrap;html=1;" vertex="1" parent="QVTyKydUTtdUCLJJfBFI-12">
          <mxGeometry width="90" height="80" as="geometry" />
        </mxCell>
        <mxCell id="QVTyKydUTtdUCLJJfBFI-10" value="&lt;font style=&quot;font-size: 14px;&quot;&gt;myfunc2&lt;/font&gt;" style="text;strokeColor=none;align=center;fillColor=none;html=1;verticalAlign=middle;whiteSpace=wrap;rounded=0;" vertex="1" parent="QVTyKydUTtdUCLJJfBFI-12">
          <mxGeometry x="15" width="60" height="30" as="geometry" />
        </mxCell>
        <mxCell id="QVTyKydUTtdUCLJJfBFI-11" value="FN" style="text;strokeColor=none;align=center;fillColor=none;html=1;verticalAlign=middle;whiteSpace=wrap;rounded=0;" vertex="1" parent="QVTyKydUTtdUCLJJfBFI-12">
          <mxGeometry x="15" y="40" width="60" height="30" as="geometry" />
        </mxCell>
        <mxCell id="QVTyKydUTtdUCLJJfBFI-13" value="" style="group" vertex="1" connectable="0" parent="1">
          <mxGeometry x="360" y="-590" width="90" height="80" as="geometry" />
        </mxCell>
        <mxCell id="QVTyKydUTtdUCLJJfBFI-14" value="" style="rounded=0;whiteSpace=wrap;html=1;" vertex="1" parent="QVTyKydUTtdUCLJJfBFI-13">
          <mxGeometry width="90" height="80" as="geometry" />
        </mxCell>
        <mxCell id="QVTyKydUTtdUCLJJfBFI-15" value="&lt;font style=&quot;font-size: 14px;&quot;&gt;myfunc4&lt;/font&gt;" style="text;strokeColor=none;align=center;fillColor=none;html=1;verticalAlign=middle;whiteSpace=wrap;rounded=0;" vertex="1" parent="QVTyKydUTtdUCLJJfBFI-13">
          <mxGeometry x="15" width="60" height="30" as="geometry" />
        </mxCell>
        <mxCell id="QVTyKydUTtdUCLJJfBFI-16" value="FN" style="text;strokeColor=none;align=center;fillColor=none;html=1;verticalAlign=middle;whiteSpace=wrap;rounded=0;" vertex="1" parent="QVTyKydUTtdUCLJJfBFI-13">
          <mxGeometry x="15" y="40" width="60" height="30" as="geometry" />
        </mxCell>
        <mxCell id="QVTyKydUTtdUCLJJfBFI-17" value="" style="group" vertex="1" connectable="0" parent="1">
          <mxGeometry x="610" y="-580" width="90" height="80" as="geometry" />
        </mxCell>
        <mxCell id="QVTyKydUTtdUCLJJfBFI-18" value="" style="rounded=0;whiteSpace=wrap;html=1;" vertex="1" parent="QVTyKydUTtdUCLJJfBFI-17">
          <mxGeometry width="90" height="80" as="geometry" />
        </mxCell>
        <mxCell id="QVTyKydUTtdUCLJJfBFI-19" value="&lt;font style=&quot;font-size: 14px;&quot;&gt;world&lt;/font&gt;" style="text;strokeColor=none;align=center;fillColor=none;html=1;verticalAlign=middle;whiteSpace=wrap;rounded=0;" vertex="1" parent="QVTyKydUTtdUCLJJfBFI-17">
          <mxGeometry x="15" width="60" height="30" as="geometry" />
        </mxCell>
        <mxCell id="QVTyKydUTtdUCLJJfBFI-20" value="NS" style="text;strokeColor=none;align=center;fillColor=none;html=1;verticalAlign=middle;whiteSpace=wrap;rounded=0;" vertex="1" parent="QVTyKydUTtdUCLJJfBFI-17">
          <mxGeometry x="15" y="40" width="60" height="30" as="geometry" />
        </mxCell>
        <mxCell id="QVTyKydUTtdUCLJJfBFI-21" value="" style="group" vertex="1" connectable="0" parent="1">
          <mxGeometry x="530" y="-700" width="90" height="80" as="geometry" />
        </mxCell>
        <mxCell id="QVTyKydUTtdUCLJJfBFI-22" value="" style="rounded=0;whiteSpace=wrap;html=1;" vertex="1" parent="QVTyKydUTtdUCLJJfBFI-21">
          <mxGeometry width="90" height="80" as="geometry" />
        </mxCell>
        <mxCell id="QVTyKydUTtdUCLJJfBFI-23" value="&lt;font style=&quot;font-size: 14px;&quot;&gt;hello&lt;/font&gt;" style="text;strokeColor=none;align=center;fillColor=none;html=1;verticalAlign=middle;whiteSpace=wrap;rounded=0;" vertex="1" parent="QVTyKydUTtdUCLJJfBFI-21">
          <mxGeometry x="15" width="60" height="30" as="geometry" />
        </mxCell>
        <mxCell id="QVTyKydUTtdUCLJJfBFI-24" value="NS" style="text;strokeColor=none;align=center;fillColor=none;html=1;verticalAlign=middle;whiteSpace=wrap;rounded=0;" vertex="1" parent="QVTyKydUTtdUCLJJfBFI-21">
          <mxGeometry x="15" y="40" width="60" height="30" as="geometry" />
        </mxCell>
        <mxCell id="QVTyKydUTtdUCLJJfBFI-25" value="" style="group" vertex="1" connectable="0" parent="1">
          <mxGeometry x="530" y="-820" width="90" height="80" as="geometry" />
        </mxCell>
        <mxCell id="QVTyKydUTtdUCLJJfBFI-26" value="" style="rounded=0;whiteSpace=wrap;html=1;" vertex="1" parent="QVTyKydUTtdUCLJJfBFI-25">
          <mxGeometry width="90" height="80" as="geometry" />
        </mxCell>
        <mxCell id="QVTyKydUTtdUCLJJfBFI-27" value="&lt;span style=&quot;font-size: 14px;&quot;&gt;JAPP&lt;/span&gt;" style="text;strokeColor=none;align=center;fillColor=none;html=1;verticalAlign=middle;whiteSpace=wrap;rounded=0;" vertex="1" parent="QVTyKydUTtdUCLJJfBFI-25">
          <mxGeometry x="15" width="60" height="30" as="geometry" />
        </mxCell>
        <mxCell id="QVTyKydUTtdUCLJJfBFI-28" value="NS" style="text;strokeColor=none;align=center;fillColor=none;html=1;verticalAlign=middle;whiteSpace=wrap;rounded=0;" vertex="1" parent="QVTyKydUTtdUCLJJfBFI-25">
          <mxGeometry x="15" y="40" width="60" height="30" as="geometry" />
        </mxCell>
        <mxCell id="QVTyKydUTtdUCLJJfBFI-29" value="" style="group" vertex="1" connectable="0" parent="1">
          <mxGeometry x="530" y="-940" width="90" height="80" as="geometry" />
        </mxCell>
        <mxCell id="QVTyKydUTtdUCLJJfBFI-30" value="" style="rounded=0;whiteSpace=wrap;html=1;" vertex="1" parent="QVTyKydUTtdUCLJJfBFI-29">
          <mxGeometry width="90" height="80" as="geometry" />
        </mxCell>
        <mxCell id="QVTyKydUTtdUCLJJfBFI-31" value="&lt;font style=&quot;font-size: 14px;&quot;&gt;Root&lt;/font&gt;" style="text;strokeColor=none;align=center;fillColor=none;html=1;verticalAlign=middle;whiteSpace=wrap;rounded=0;" vertex="1" parent="QVTyKydUTtdUCLJJfBFI-29">
          <mxGeometry x="15" width="60" height="30" as="geometry" />
        </mxCell>
        <mxCell id="QVTyKydUTtdUCLJJfBFI-32" value="root" style="text;strokeColor=none;align=center;fillColor=none;html=1;verticalAlign=middle;whiteSpace=wrap;rounded=0;" vertex="1" parent="QVTyKydUTtdUCLJJfBFI-29">
          <mxGeometry x="15" y="40" width="60" height="30" as="geometry" />
        </mxCell>
        <mxCell id="QVTyKydUTtdUCLJJfBFI-34" style="edgeStyle=orthogonalEdgeStyle;rounded=0;orthogonalLoop=1;jettySize=auto;html=1;exitX=0.5;exitY=1;exitDx=0;exitDy=0;entryX=0.5;entryY=0;entryDx=0;entryDy=0;" edge="1" parent="1" source="QVTyKydUTtdUCLJJfBFI-30" target="QVTyKydUTtdUCLJJfBFI-27">
          <mxGeometry relative="1" as="geometry" />
        </mxCell>
        <mxCell id="QVTyKydUTtdUCLJJfBFI-40" style="edgeStyle=orthogonalEdgeStyle;rounded=0;orthogonalLoop=1;jettySize=auto;html=1;entryX=0.5;entryY=0;entryDx=0;entryDy=0;" edge="1" parent="1" source="QVTyKydUTtdUCLJJfBFI-26" target="QVTyKydUTtdUCLJJfBFI-23">
          <mxGeometry relative="1" as="geometry" />
        </mxCell>
        <mxCell id="QVTyKydUTtdUCLJJfBFI-46" style="edgeStyle=orthogonalEdgeStyle;rounded=0;orthogonalLoop=1;jettySize=auto;html=1;entryX=0.5;entryY=0;entryDx=0;entryDy=0;" edge="1" parent="1" source="QVTyKydUTtdUCLJJfBFI-22" target="QVTyKydUTtdUCLJJfBFI-19">
          <mxGeometry relative="1" as="geometry" />
        </mxCell>
        <mxCell id="QVTyKydUTtdUCLJJfBFI-48" style="edgeStyle=orthogonalEdgeStyle;rounded=0;orthogonalLoop=1;jettySize=auto;html=1;entryX=0.5;entryY=0;entryDx=0;entryDy=0;" edge="1" parent="1" source="QVTyKydUTtdUCLJJfBFI-22" target="QVTyKydUTtdUCLJJfBFI-15">
          <mxGeometry relative="1" as="geometry" />
        </mxCell>
        <mxCell id="QVTyKydUTtdUCLJJfBFI-49" value="" style="group" vertex="1" connectable="0" parent="1">
          <mxGeometry x="470" y="-470" width="90" height="80" as="geometry" />
        </mxCell>
        <mxCell id="QVTyKydUTtdUCLJJfBFI-50" value="" style="rounded=0;whiteSpace=wrap;html=1;" vertex="1" parent="QVTyKydUTtdUCLJJfBFI-49">
          <mxGeometry width="90" height="80" as="geometry" />
        </mxCell>
        <mxCell id="QVTyKydUTtdUCLJJfBFI-51" value="&lt;font style=&quot;font-size: 14px;&quot;&gt;myfunc&lt;/font&gt;" style="text;strokeColor=none;align=center;fillColor=none;html=1;verticalAlign=middle;whiteSpace=wrap;rounded=0;" vertex="1" parent="QVTyKydUTtdUCLJJfBFI-49">
          <mxGeometry x="15" width="60" height="30" as="geometry" />
        </mxCell>
        <mxCell id="QVTyKydUTtdUCLJJfBFI-52" value="FN" style="text;strokeColor=none;align=center;fillColor=none;html=1;verticalAlign=middle;whiteSpace=wrap;rounded=0;" vertex="1" parent="QVTyKydUTtdUCLJJfBFI-49">
          <mxGeometry x="15" y="40" width="60" height="30" as="geometry" />
        </mxCell>
        <mxCell id="QVTyKydUTtdUCLJJfBFI-53" value="" style="group" vertex="1" connectable="0" parent="1">
          <mxGeometry x="610" y="-470" width="90" height="80" as="geometry" />
        </mxCell>
        <mxCell id="QVTyKydUTtdUCLJJfBFI-54" value="" style="rounded=0;whiteSpace=wrap;html=1;" vertex="1" parent="QVTyKydUTtdUCLJJfBFI-53">
          <mxGeometry width="90" height="80" as="geometry" />
        </mxCell>
        <mxCell id="QVTyKydUTtdUCLJJfBFI-55" value="&lt;font style=&quot;font-size: 14px;&quot;&gt;world2&lt;/font&gt;" style="text;strokeColor=none;align=center;fillColor=none;html=1;verticalAlign=middle;whiteSpace=wrap;rounded=0;" vertex="1" parent="QVTyKydUTtdUCLJJfBFI-53">
          <mxGeometry x="15" width="60" height="30" as="geometry" />
        </mxCell>
        <mxCell id="QVTyKydUTtdUCLJJfBFI-56" value="NS" style="text;strokeColor=none;align=center;fillColor=none;html=1;verticalAlign=middle;whiteSpace=wrap;rounded=0;" vertex="1" parent="QVTyKydUTtdUCLJJfBFI-53">
          <mxGeometry x="15" y="40" width="60" height="30" as="geometry" />
        </mxCell>
        <mxCell id="QVTyKydUTtdUCLJJfBFI-57" value="" style="group" vertex="1" connectable="0" parent="1">
          <mxGeometry x="730" y="-470" width="90" height="80" as="geometry" />
        </mxCell>
        <mxCell id="QVTyKydUTtdUCLJJfBFI-58" value="" style="rounded=0;whiteSpace=wrap;html=1;" vertex="1" parent="QVTyKydUTtdUCLJJfBFI-57">
          <mxGeometry width="90" height="80" as="geometry" />
        </mxCell>
        <mxCell id="QVTyKydUTtdUCLJJfBFI-59" value="&lt;font style=&quot;font-size: 14px;&quot;&gt;myfunc3&lt;/font&gt;" style="text;strokeColor=none;align=center;fillColor=none;html=1;verticalAlign=middle;whiteSpace=wrap;rounded=0;" vertex="1" parent="QVTyKydUTtdUCLJJfBFI-57">
          <mxGeometry x="15" width="60" height="30" as="geometry" />
        </mxCell>
        <mxCell id="QVTyKydUTtdUCLJJfBFI-60" value="FN" style="text;strokeColor=none;align=center;fillColor=none;html=1;verticalAlign=middle;whiteSpace=wrap;rounded=0;" vertex="1" parent="QVTyKydUTtdUCLJJfBFI-57">
          <mxGeometry x="15" y="40" width="60" height="30" as="geometry" />
        </mxCell>
        <mxCell id="QVTyKydUTtdUCLJJfBFI-63" style="edgeStyle=orthogonalEdgeStyle;rounded=0;orthogonalLoop=1;jettySize=auto;html=1;entryX=0.5;entryY=0;entryDx=0;entryDy=0;" edge="1" parent="1" source="QVTyKydUTtdUCLJJfBFI-18" target="QVTyKydUTtdUCLJJfBFI-59">
          <mxGeometry relative="1" as="geometry" />
        </mxCell>
        <mxCell id="QVTyKydUTtdUCLJJfBFI-66" style="edgeStyle=orthogonalEdgeStyle;rounded=0;orthogonalLoop=1;jettySize=auto;html=1;entryX=0.5;entryY=0;entryDx=0;entryDy=0;" edge="1" parent="1" source="QVTyKydUTtdUCLJJfBFI-18" target="QVTyKydUTtdUCLJJfBFI-51">
          <mxGeometry relative="1" as="geometry" />
        </mxCell>
        <mxCell id="QVTyKydUTtdUCLJJfBFI-68" style="edgeStyle=orthogonalEdgeStyle;rounded=0;orthogonalLoop=1;jettySize=auto;html=1;entryX=0.5;entryY=0;entryDx=0;entryDy=0;" edge="1" parent="1" source="QVTyKydUTtdUCLJJfBFI-18" target="QVTyKydUTtdUCLJJfBFI-55">
          <mxGeometry relative="1" as="geometry" />
        </mxCell>
        <mxCell id="QVTyKydUTtdUCLJJfBFI-71" style="edgeStyle=orthogonalEdgeStyle;rounded=0;orthogonalLoop=1;jettySize=auto;html=1;entryX=0.5;entryY=0;entryDx=0;entryDy=0;" edge="1" parent="1" source="QVTyKydUTtdUCLJJfBFI-54" target="QVTyKydUTtdUCLJJfBFI-10">
          <mxGeometry relative="1" as="geometry" />
        </mxCell>
      </root>
    </mxGraphModel>
  </diagram>
</mxfile>
